<svg id="_5" data-name="5" xmlns="http://www.w3.org/2000/svg" viewBox="0 0 684.33 629.39"><defs><style>.cls-1,.cls-3{fill:#fff;}.cls-2{fill:#c70000;}.cls-3{font-size:350px;font-family:AvenirNextLTPro-Bold, Avenir Next LT Pro;font-weight:700;}</style></defs><title>Hurricane4</title><path class="cls-1" d="M345,687.23a318.66,318.66,0,0,1-102.6-16.88A285.56,285.56,0,0,1,121,590.46c-3.14-3.48-5.87-6.88-8.28-9.88-.92-1.14-1.83-2.28-2.76-3.41a40,40,0,0,1,34.93-65.23,49.88,49.88,0,0,1,18.8,5.91A194.7,194.7,0,0,0,233.55,540c1.07.12,2.15.24,3.26.34-32.11-40-51.48-85.66-57.58-135.8-3.78-31.05-2.28-61.11,4.46-89.32,16-67,52.82-124.09,109.41-169.55C327.49,118,367.79,96.37,416.3,79.53c36.64-12.72,73.26-19.67,108.86-20.65l.9-.15c1.21-.2,2.43-.39,3.65-.55a39.82,39.82,0,0,1,5.23-.34h9a39.91,39.91,0,0,1,4.77.28L558,59.24c4,.47,8.16.88,12.51,1.32,10.28,1,20.91,2.08,32,4.17,63.42,11.92,117.6,41.9,161,89.11,3.39,3.68,6.38,7.32,9,10.54q1.56,1.91,3.13,3.78a40,40,0,0,1-30.59,65.76q-1.87,0-3.78-.18a50.86,50.86,0,0,1-19.39-6,204.32,204.32,0,0,0-66.76-21.6c-2.15-.31-4.21-.58-6.17-.83q5.4,6.63,10.3,13.57A264.42,264.42,0,0,1,707.92,354.5c1.75,24.43-.06,49.07-5.54,75.33-5.94,28.47-17.61,56.59-36.7,88.5-20,33.46-46.72,62.6-79.36,86.62-68.43,50.35-144.11,77.9-224.93,81.88C355.92,687.1,350.4,687.23,345,687.23Z" transform="translate(-100.8 -57.84)"/><path class="cls-2" d="M534.94,97.84h9L553.29,99c14,1.65,28.08,2.5,41.87,5.09,54.72,10.28,101.21,35.81,139,76.87,3.84,4.17,7.33,8.66,11,13a11.34,11.34,0,0,1-4.46-1.5,242.85,242.85,0,0,0-79.79-25.83c-16.34-2.34-32.72-3.81-49.18-1.91-11,1.27-22,2.8-32.87,4.8-4.94.9-10.57,2.47-11.94,8.31-1.47,6.28,3.92,9.05,8,12A227.83,227.83,0,0,1,626.69,242,223.72,223.72,0,0,1,668,357.36c1.57,21.76-.37,43.08-4.79,64.29-5.73,27.42-17.62,52.32-31.87,76.15-17.75,29.66-41.05,54.55-68.74,74.93-60.41,44.44-127.76,70.43-203.19,74.14a278.72,278.72,0,0,1-104.21-14.4,244.89,244.89,0,0,1-104.57-68.84c-3.45-3.81-6.58-7.92-9.85-11.89a10.08,10.08,0,0,1,4,1.42A234.06,234.06,0,0,0,229,579.69c16.42,1.88,33.18,1.62,49.75,1.09,9.82-.32,19.64-2.72,29.32-4.8,4.57-1,9.75-2.63,10.94-8.14,1.32-6.09-3.75-8.8-7.67-11.69-14.92-11-28.75-23.26-40.62-37.54-28.77-34.61-46.34-74.05-51.8-119-3.09-25.37-2.24-50.51,3.65-75.19C237,264.1,270,215.46,318.15,176.8c33.34-26.79,71.09-45.54,111.27-59.48,31.57-11,64.08-17.65,97.64-18.48A72.52,72.52,0,0,0,534.94,97.84Z" transform="translate(-100.8 -57.84)"/><text class="cls-3" transform="translate(229.11 420.4)">4</text></svg>