<svg id="_5" data-name="5" xmlns="http://www.w3.org/2000/svg" viewBox="0 0 684.33 629.39"><defs><style>.cls-1,.cls-3{fill:#fff;}.cls-2{fill:red;}.cls-3{font-size:350px;font-family:AvenirNextLTPro-Bold, Avenir Next LT Pro;font-weight:700;}</style></defs><title>Hurricane2</title><path class="cls-1" d="M308.6,643.31A318.66,318.66,0,0,1,206,626.43,285.59,285.59,0,0,1,84.61,546.54c-3.14-3.48-5.88-6.88-8.29-9.89-.91-1.14-1.83-2.28-2.76-3.4A40,40,0,0,1,108.5,468a49.55,49.55,0,0,1,18.79,5.91,195,195,0,0,0,69.9,22.1l3.25.34c-32.11-40-51.47-85.66-57.58-135.81-3.78-31.05-2.27-61.1,4.46-89.31,16-67.05,52.83-124.09,109.42-169.56,34.39-27.63,74.69-49.25,123.2-66.08C416.58,22.89,453.2,15.94,488.79,15l.9-.15c1.22-.2,2.44-.39,3.66-.55a39.71,39.71,0,0,1,5.23-.34h9a39.87,39.87,0,0,1,4.76.28s7.19.87,9.29,1.11c4,.48,8.15.89,12.51,1.33,10.28,1,20.9,2.08,32,4.17,63.43,11.92,117.61,41.9,161,89.1,3.38,3.68,6.38,7.33,9,10.55,1,1.26,2.08,2.53,3.13,3.78A40,40,0,0,1,708.78,190q-1.89,0-3.78-.18a50.78,50.78,0,0,1-19.39-6,204.62,204.62,0,0,0-66.76-21.59c-2.16-.31-4.21-.59-6.17-.83q5.4,6.63,10.3,13.57a264.47,264.47,0,0,1,48.58,135.57c1.75,24.44-.06,49.08-5.54,75.33-5.95,28.47-17.61,56.6-36.7,88.51C609.3,507.87,582.6,537,550,561,481.52,611.38,405.85,638.93,325,642.9,319.56,643.17,314,643.31,308.6,643.31Z" transform="translate(-64.44 -13.92)"/><path class="cls-2" d="M498.58,53.92h9L516.93,55c14,1.65,28.08,2.49,41.87,5.08C613.52,70.4,660,95.93,697.78,137c3.84,4.17,7.33,8.65,11,13a11,11,0,0,1-4.45-1.5,243.39,243.39,0,0,0-79.79-25.83c-16.34-2.34-32.72-3.8-49.19-1.9-11,1.27-22,2.79-32.86,4.79-4.94.91-10.57,2.48-11.94,8.32-1.47,6.28,3.92,9,8,12a227.63,227.63,0,0,1,51.82,52.21,223.71,223.71,0,0,1,41.34,115.34,231.38,231.38,0,0,1-4.8,64.28C621.14,405.14,609.25,430,595,453.87c-17.75,29.67-41,54.56-68.73,74.94C465.85,573.25,398.49,599.24,323.07,603a278.66,278.66,0,0,1-104.21-14.4,245,245,0,0,1-104.58-68.84c-3.45-3.81-6.57-7.92-9.84-11.9a10.23,10.23,0,0,1,4,1.42,234.09,234.09,0,0,0,84.16,26.54c16.43,1.88,33.18,1.61,49.75,1.08,9.83-.31,19.64-2.71,29.33-4.8,4.56-1,9.74-2.63,10.94-8.13,1.32-6.09-3.76-8.8-7.67-11.7-14.92-11-28.75-23.26-40.62-37.53-28.77-34.62-46.34-74.05-51.81-119-3.09-25.37-2.23-50.51,3.66-75.19,14.42-60.36,47.44-109,95.56-147.66,33.34-26.79,71.09-45.54,111.26-59.49,31.58-11,64.09-17.64,97.65-18.47A78.57,78.57,0,0,0,498.58,53.92Z" transform="translate(-64.44 -13.92)"/><text class="cls-3" transform="translate(229.11 420.39)">2</text></svg>