<svg id="_5" data-name="5" xmlns="http://www.w3.org/2000/svg" viewBox="0 0 684.33 629.39"><defs><style>.cls-1,.cls-3{fill:#fff;}.cls-2{fill:#c70000;}.cls-3{font-size:350px;font-family:AvenirNextLTPro-Bold, Avenir Next LT Pro;font-weight:700;}</style></defs><title>Hurricane5</title><path class="cls-1" d="M262.16,663.2a318.66,318.66,0,0,1-102.6-16.88,285.49,285.49,0,0,1-121.4-79.9c-3.14-3.47-5.87-6.87-8.28-9.88-.92-1.14-1.83-2.28-2.76-3.41a40,40,0,0,1,34.93-65.22,49.69,49.69,0,0,1,18.8,5.91,195,195,0,0,0,69.9,22.1c1.06.12,2.14.23,3.25.33-32.11-40-51.48-85.65-57.58-135.8-3.78-31.05-2.28-61.1,4.46-89.31,16-67,52.83-124.09,109.41-169.56C244.69,94,285,72.33,333.49,55.5c36.65-12.72,73.26-19.67,108.86-20.66l.9-.14c1.22-.2,2.43-.39,3.65-.55a40,40,0,0,1,5.24-.35h9a39.88,39.88,0,0,1,4.76.29l9.28,1.11c4,.48,8.16.89,12.52,1.32,10.27,1,20.9,2.09,32,4.18,63.42,11.92,117.6,41.89,161,89.1,3.39,3.68,6.38,7.33,9,10.55,1,1.26,2.07,2.53,3.13,3.78a40,40,0,0,1-30.6,65.75c-1.25,0-2.51,0-3.77-.17a50.72,50.72,0,0,1-19.39-6,204.44,204.44,0,0,0-66.77-21.59c-2.15-.31-4.2-.59-6.17-.83q5.4,6.63,10.31,13.57a264.46,264.46,0,0,1,48.57,135.57c1.76,24.44-.05,49.08-5.54,75.33-5.94,28.47-17.6,56.6-36.7,88.51-20,33.46-46.71,62.6-79.35,86.61-68.44,50.36-144.12,77.91-224.93,81.88C273.11,663.06,267.59,663.2,262.16,663.2Z" transform="translate(-17.99 -33.8)"/><path class="cls-2" d="M452.14,73.81h9l9.34,1.11c14,1.66,28.08,2.5,41.87,5.09,54.73,10.28,101.21,35.81,139,76.87,3.83,4.18,7.33,8.66,11,13a11.08,11.08,0,0,1-4.45-1.5,243.39,243.39,0,0,0-79.79-25.83c-16.34-2.34-32.72-3.8-49.19-1.9-11,1.27-22,2.79-32.87,4.79-4.94.91-10.57,2.47-11.94,8.32-1.46,6.28,3.92,9,8,12A227.83,227.83,0,0,1,543.88,218a223.69,223.69,0,0,1,41.33,115.34c1.57,21.76-.36,43.08-4.79,64.28-5.73,27.42-17.62,52.32-31.87,76.15-17.75,29.67-41,54.56-68.74,74.94-60.4,44.44-127.76,70.43-203.19,74.14a278.72,278.72,0,0,1-104.21-14.4A245.07,245.07,0,0,1,67.84,539.6c-3.45-3.81-6.57-7.92-9.85-11.9a10.18,10.18,0,0,1,4,1.42,234.08,234.08,0,0,0,84.17,26.54c16.42,1.88,33.18,1.61,49.75,1.08,9.82-.31,19.64-2.71,29.32-4.8,4.57-1,9.75-2.63,10.94-8.13,1.33-6.09-3.75-8.8-7.67-11.7-14.92-11-28.75-23.26-40.61-37.53-28.78-34.62-46.35-74.06-51.81-119-3.09-25.37-2.24-50.51,3.66-75.19,14.41-60.36,47.44-109,95.56-147.67,33.33-26.78,71.09-45.53,111.26-59.48,31.57-11,64.08-17.64,97.65-18.47A78.57,78.57,0,0,0,452.14,73.81Z" transform="translate(-17.99 -33.8)"/><text class="cls-3" transform="translate(229.11 420.4)">5</text></svg>