<svg id="_5" data-name="5" xmlns="http://www.w3.org/2000/svg" viewBox="0 0 684.33 629.39"><defs><style>.cls-1,.cls-3{fill:#fff;}.cls-2{fill:#c70000;}.cls-3{font-size:350px;font-family:AvenirNextLTPro-Bold, Avenir Next LT Pro;font-weight:700;}</style></defs><title>Hurricane3</title><path class="cls-1" d="M218.7,625.28A318.66,318.66,0,0,1,116.1,608.4,285.53,285.53,0,0,1-5.29,528.51c-3.14-3.48-5.88-6.88-8.29-9.88q-1.37-1.71-2.76-3.41A40,40,0,0,1,18.6,450a49.57,49.57,0,0,1,18.79,5.92A194.93,194.93,0,0,0,107.29,478c1.06.13,2.14.24,3.25.34-32.11-40-51.47-85.66-57.58-135.8-3.78-31.05-2.28-61.1,4.46-89.32,16-67,52.83-124.09,109.42-169.55C201.23,56,241.53,34.42,290,17.58,326.68,4.86,363.3-2.09,398.89-3.07l.9-.15c1.22-.2,2.44-.39,3.66-.55a39.71,39.71,0,0,1,5.23-.34h9a39.87,39.87,0,0,1,4.76.28l9.29,1.12c4,.47,8.15.88,12.51,1.32,10.28,1,20.9,2.08,32,4.18,63.43,11.91,117.61,41.89,161,89.1,3.38,3.68,6.38,7.32,9,10.54q1.56,1.91,3.13,3.78A40,40,0,0,1,618.87,172c-1.25,0-2.51-.06-3.77-.18a50.8,50.8,0,0,1-19.39-6A204.4,204.4,0,0,0,529,144.23c-2.16-.31-4.21-.58-6.17-.83q5.38,6.63,10.3,13.57a264.4,264.4,0,0,1,48.57,135.58c1.76,24.43,0,49.07-5.53,75.33-6,28.47-17.61,56.59-36.7,88.5-20,33.46-46.72,62.6-79.36,86.62-68.44,50.35-144.12,77.9-224.93,81.88C229.66,625.15,224.13,625.28,218.7,625.28Z" transform="translate(25.46 4.11)"/><path class="cls-2" d="M408.68,35.89h9L427,37c14,1.65,28.08,2.5,41.87,5.09,54.72,10.28,101.2,35.81,139,76.87,3.84,4.17,7.33,8.66,11,13a11.35,11.35,0,0,1-4.45-1.5,242.92,242.92,0,0,0-79.79-25.83c-16.34-2.34-32.72-3.81-49.19-1.91-11,1.27-22,2.8-32.86,4.8-4.94.91-10.57,2.47-11.94,8.31-1.47,6.28,3.92,9,8,12a227.63,227.63,0,0,1,51.82,52.21,223.74,223.74,0,0,1,41.34,115.34A231.48,231.48,0,0,1,537,359.7c-5.72,27.42-17.61,52.32-31.87,76.15-17.75,29.66-41,54.56-68.74,74.93-60.4,44.45-127.76,70.44-203.19,74.15A278.73,278.73,0,0,1,129,570.52,245,245,0,0,1,24.38,501.68c-3.45-3.81-6.57-7.92-9.84-11.89a10.08,10.08,0,0,1,4.05,1.42,234.22,234.22,0,0,0,84.16,26.54c16.42,1.87,33.18,1.61,49.75,1.08,9.83-.32,19.64-2.72,29.33-4.8,4.56-1,9.74-2.63,10.94-8.14,1.32-6.09-3.76-8.8-7.67-11.69-14.92-11-28.75-23.26-40.62-37.54-28.77-34.61-46.34-74.05-51.81-119-3.09-25.37-2.24-50.51,3.66-75.19,14.42-60.36,47.44-109,95.56-147.66C225.23,88.06,263,69.31,303.15,55.37c31.58-11,64.09-17.65,97.65-18.48A73.16,73.16,0,0,0,408.68,35.89Z" transform="translate(25.46 4.11)"/><text class="cls-3" transform="translate(229.11 420.4)">3</text></svg>