<svg id="_5" data-name="5" xmlns="http://www.w3.org/2000/svg" viewBox="0 0 684.33 629.39"><defs><style>.cls-1,.cls-3{fill:#fff;}.cls-2{fill:#1f5d7f;stroke:#1f5d7f;}.cls-2,.cls-3{stroke-miterlimit:10;}.cls-3{stroke:#f2f1df;}</style></defs><title>TropicalStorm</title><path class="cls-1" d="M429.57,667.7A318.66,318.66,0,0,1,327,650.82a285.53,285.53,0,0,1-121.39-79.89c-3.14-3.47-5.88-6.88-8.29-9.88q-1.36-1.71-2.76-3.41a40,40,0,0,1,34.94-65.23,49.76,49.76,0,0,1,18.79,5.92,194.73,194.73,0,0,0,69.9,22.09c1.06.13,2.14.24,3.25.34-32.11-40-51.47-85.66-57.58-135.8-3.78-31-2.28-61.1,4.46-89.32,16-67,52.83-124.09,109.41-169.55C412.1,98.45,452.4,76.84,500.9,60c36.65-12.72,73.27-19.67,108.86-20.65l.9-.15c1.22-.19,2.44-.38,3.65-.55a40,40,0,0,1,5.24-.34h9a39.87,39.87,0,0,1,4.76.28l9.28,1.12c4,.47,8.16.88,12.52,1.32,10.27,1,20.9,2.08,32,4.18,63.42,11.91,117.61,41.89,161,89.1,3.39,3.68,6.39,7.33,9,10.54,1,1.27,2.07,2.53,3.13,3.79a40,40,0,0,1-30.6,65.75c-1.25,0-2.51-.06-3.77-.18a50.57,50.57,0,0,1-19.39-6,204.38,204.38,0,0,0-66.77-21.6q-3.22-.45-6.16-.83,5.39,6.65,10.3,13.57A264.49,264.49,0,0,1,792.52,335c1.76,24.43,0,49.07-5.54,75.33-5.94,28.47-17.6,56.59-36.7,88.5-20,33.46-46.71,62.6-79.35,86.62C602.49,635.78,526.81,663.32,446,667.3,440.53,667.57,435,667.7,429.57,667.7Z" transform="translate(-185.4 -38.31)"/><path class="cls-2" d="M619.55,78.31h9l9.35,1.12c14,1.65,28.08,2.5,41.86,5.09,54.73,10.28,101.21,35.81,139,76.87,3.83,4.17,7.33,8.66,11,13a11.29,11.29,0,0,1-4.45-1.5,242.92,242.92,0,0,0-79.79-25.83c-16.34-2.34-32.72-3.8-49.19-1.9-11,1.26-22,2.79-32.87,4.79-4.94.91-10.57,2.47-11.93,8.32-1.47,6.27,3.92,9,8,12a227.83,227.83,0,0,1,51.82,52.21,223.74,223.74,0,0,1,41.34,115.34,231.48,231.48,0,0,1-4.8,64.29c-5.73,27.42-17.61,52.32-31.87,76.15-17.75,29.66-41.05,54.56-68.74,74.93-60.4,44.45-127.76,70.44-203.19,74.15a278.73,278.73,0,0,1-104.21-14.41,245,245,0,0,1-104.57-68.83c-3.45-3.82-6.57-7.93-9.85-11.9a10,10,0,0,1,4,1.42,234.27,234.27,0,0,0,84.17,26.54c16.42,1.87,33.18,1.61,49.75,1.08,9.82-.32,19.64-2.72,29.32-4.8,4.57-1,9.75-2.63,10.94-8.14,1.33-6.09-3.75-8.8-7.67-11.69-14.91-11-28.74-23.26-40.61-37.54C326.58,464.47,309,425,303.54,380.13c-3.09-25.38-2.24-50.52,3.66-75.2,14.41-60.35,47.44-109,95.56-147.66C436.1,130.48,473.85,111.73,514,97.79c31.57-11,64.09-17.64,97.65-18.48A73.16,73.16,0,0,0,619.55,78.31Z" transform="translate(-185.4 -38.31)"/><circle class="cls-3" cx="342.16" cy="314.7" r="113.69"/></svg>