<svg id="_5" data-name="5" xmlns="http://www.w3.org/2000/svg" viewBox="0 0 684.33 629.39"><defs><style>.cls-1,.cls-2{fill:#fff;}.cls-1{opacity:0.01;}.cls-2,.cls-3{stroke:#fff;}.cls-2,.cls-3,.cls-4{stroke-miterlimit:10;}.cls-3{fill:#858585;}.cls-4{fill:#409dbf;stroke:#409dbf;}</style></defs><title>TropicalDepression</title><path class="cls-1" d="M444.53,757.43a318.66,318.66,0,0,1-102.6-16.88,285.59,285.59,0,0,1-121.39-79.89c-3.14-3.48-5.87-6.88-8.29-9.88q-1.37-1.71-2.76-3.41a40,40,0,0,1,34.94-65.23,49.83,49.83,0,0,1,18.8,5.92,194.68,194.68,0,0,0,69.89,22.09c1.06.13,2.15.24,3.25.34-32.11-40-51.47-85.66-57.57-135.8-3.78-31.05-2.28-61.1,4.46-89.32,16-67,52.82-124.09,109.41-169.55,34.39-27.64,74.69-49.25,123.2-66.09,36.64-12.72,73.26-19.67,108.85-20.65l.9-.15c1.22-.19,2.44-.39,3.66-.55a39.71,39.71,0,0,1,5.23-.34h9a39.87,39.87,0,0,1,4.76.28l9.29,1.12c4,.47,8.15.88,12.51,1.32,10.28,1,20.91,2.08,32,4.18,63.43,11.91,117.61,41.89,161,89.1,3.38,3.68,6.38,7.33,9,10.54q1.56,1.9,3.13,3.79a40,40,0,0,1-30.59,65.75c-1.26,0-2.51-.06-3.78-.18a50.86,50.86,0,0,1-19.39-6,204.4,204.4,0,0,0-66.76-21.6c-2.16-.3-4.21-.58-6.17-.83q5.4,6.63,10.3,13.57A264.42,264.42,0,0,1,807.49,424.7c1.75,24.43-.06,49.07-5.54,75.33-6,28.47-17.61,56.59-36.7,88.5-20,33.46-46.72,62.6-79.36,86.62C617.45,725.51,541.78,753.05,461,757,455.49,757.3,450,757.43,444.53,757.43Z" transform="translate(-200.37 -128.04)"/><path class="cls-2" d="M542.53,708.24a265.51,265.51,0,1,1,187.74-77.77A263.76,263.76,0,0,1,542.53,708.24Z" transform="translate(-200.37 -128.04)"/><circle class="cls-3" cx="342.16" cy="314.7" r="225.5"/><circle class="cls-4" cx="342.16" cy="314.7" r="225.5"/><circle class="cls-2" cx="342.16" cy="314.7" r="113.69"/></svg>