<svg id="_5" data-name="5" xmlns="http://www.w3.org/2000/svg" viewBox="0 0 684.33 629.39"><defs><style>.cls-1,.cls-2,.cls-4{fill:#fff;}.cls-1{opacity:0.01;}.cls-2,.cls-3{stroke:#fff;}.cls-2,.cls-3,.cls-4,.cls-5{stroke-miterlimit:10;}.cls-3,.cls-5{fill:#88d6eb;}.cls-4{stroke:#f2f1df;}.cls-5{stroke:#88d6eb;}</style></defs><title>TropicalLow</title><path class="cls-1" d="M445,627.38a318.66,318.66,0,0,1-102.6-16.88A285.52,285.52,0,0,1,221,530.6c-3.14-3.47-5.87-6.87-8.29-9.88q-1.37-1.71-2.76-3.41a40,40,0,0,1,34.94-65.22,49.69,49.69,0,0,1,18.8,5.91,194.9,194.9,0,0,0,69.89,22.1c1.06.12,2.15.23,3.25.33-32.11-40-51.47-85.65-57.57-135.8-3.78-31.05-2.28-61.1,4.46-89.31,16-67,52.82-124.09,109.41-169.56,34.39-27.63,74.69-49.25,123.2-66.08C553,7,589.57,0,625.16-1l.9-.14c1.22-.2,2.44-.39,3.66-.55A39.72,39.72,0,0,1,635-2h9a39.88,39.88,0,0,1,4.76.29L658-.62c4,.48,8.15.89,12.51,1.32,10.28,1,20.91,2.09,32,4.18C766,16.8,820.16,46.77,863.59,94c3.38,3.68,6.38,7.33,9,10.55,1,1.26,2.08,2.53,3.13,3.78a40,40,0,0,1-30.59,65.75c-1.26,0-2.51-.06-3.78-.17a50.84,50.84,0,0,1-19.39-6,204.38,204.38,0,0,0-66.76-21.59c-2.16-.31-4.21-.59-6.17-.83q5.4,6.63,10.3,13.57a264.47,264.47,0,0,1,48.58,135.57c1.75,24.44-.06,49.08-5.54,75.33-5.95,28.47-17.61,56.6-36.7,88.51-20,33.46-46.72,62.6-79.36,86.61C617.89,595.45,542.22,623,461.4,627,455.93,627.24,450.4,627.38,445,627.38Z" transform="translate(-200.81 2.02)"/><path class="cls-2" d="M543,578.18A265.5,265.5,0,0,1,355.23,124.94,265.5,265.5,0,0,1,730.71,500.42,263.79,263.79,0,0,1,543,578.18Z" transform="translate(-200.81 2.02)"/><circle class="cls-3" cx="342.16" cy="314.7" r="225.5"/><circle class="cls-4" cx="342.16" cy="314.7" r="113.69"/><rect class="cls-5" x="159.51" y="280.88" width="365.31" height="67.63"/></svg>